<?xml version="1.0" encoding="iso-8859-1"?>
<!-- Generator: Adobe Illustrator 19.0.0, SVG Export Plug-In . SVG Version: 6.00 Build 0)  -->
<svg version="1.1" id="Layer_1" xmlns="http://www.w3.org/2000/svg" xmlns:xlink="http://www.w3.org/1999/xlink" x="0px" y="0px"
	 viewBox="0 0 300.296 300.296" style="enable-background:new 0 0 300.296 300.296;" xml:space="preserve">
<g>
	<g>
		<g>
			<path d="M150.148,0C92.625,0,45.827,46.799,45.827,104.322c0,35.044,17.115,67.037,46.004,86.495v69.696
				c0,1.671,0.545,3.297,1.402,4.554c0.002,0.003,0.003,0.005,0.005,0.009l16.823,24.676c4.501,6.602,11.96,10.545,19.952,10.545
				h40.272c7.991,0,15.45-3.942,19.952-10.545l16.823-24.676c0.002-0.003,0.003-0.005,0.004-0.009
				c0.876-1.285,1.402-2.919,1.402-4.554v-69.696c28.888-19.458,46.003-51.452,46.003-86.495C254.469,46.799,207.67,0,150.148,0z
				 M176.849,280.625c-1.481,2.173-3.934,3.47-6.565,3.47h-40.272c-2.631,0-5.085-1.297-6.565-3.47l-8.191-12.013h69.784
				L176.849,280.625z M192.265,194.464v57.948H108.03v-57.948L192.265,194.464L192.265,194.464z M198.102,178.264h-34.767
				l35.618-70.279c2.023-3.99,0.428-8.865-3.563-10.886c-3.988-2.025-8.865-0.427-10.886,3.563l-34.356,67.786l-34.355-67.786
				c-2.022-3.99-6.896-5.585-10.886-3.563c-3.99,2.022-5.586,6.897-3.563,10.886l35.618,70.279h-34.767
				c-25.196-16.348-40.167-43.816-40.167-73.942c0-48.59,39.53-88.122,88.12-88.122s88.122,39.531,88.122,88.122
				C238.269,134.447,223.298,161.916,198.102,178.264z"/>
			<path d="M137.908,219.658h24.479c4.474,0,8.1-3.626,8.1-8.1c0-4.474-3.626-8.1-8.1-8.1h-24.479c-4.474,0-8.1,3.626-8.1,8.1
				C129.808,216.031,133.435,219.658,137.908,219.658z"/>
			<path d="M137.908,243.417h24.479c4.474,0,8.1-3.626,8.1-8.1c0-4.474-3.626-8.1-8.1-8.1h-24.479c-4.474,0-8.1,3.626-8.1,8.1
				C129.808,239.79,133.435,243.417,137.908,243.417z"/>
		</g>
	</g>
</g>
<g>
</g>
<g>
</g>
<g>
</g>
<g>
</g>
<g>
</g>
<g>
</g>
<g>
</g>
<g>
</g>
<g>
</g>
<g>
</g>
<g>
</g>
<g>
</g>
<g>
</g>
<g>
</g>
<g>
</g>
</svg>
